# Blender 3.6.2
# www.blender.org
mtllib savecross.mtl
o cross
v -0.025000 0.275000 0.050000
v -0.025000 0.025000 0.050000
v 0.000000 0.250000 0.063000
v 0.000000 0.000000 0.063000
v -0.225000 -0.025000 0.050000
v -0.200000 0.000000 0.063000
v 0.000000 -0.650000 0.063000
v -0.025000 -0.675000 0.050000
v 0.225000 -0.025000 0.050000
v 0.200000 0.000000 0.063000
v 0.025000 0.025000 0.050000
v -0.050000 0.300000 0.025000
v -0.225000 0.025000 0.050000
v -0.050000 -0.050000 0.025000
v -0.025000 -0.025000 0.050000
v 0.025000 -0.675000 0.050000
v 0.025000 -0.025000 0.050000
v 0.250000 -0.050000 0.025000
v 0.250000 0.050000 0.025000
v 0.225000 0.025000 0.050000
v 0.050000 0.300000 0.025000
v 0.025000 0.275000 0.050000
v -0.050000 0.300000 0.000000
v -0.050000 0.050000 0.000000
v -0.050000 0.050000 0.025000
v -0.250000 0.050000 0.025000
v -0.250000 -0.050000 0.000000
v -0.250000 0.050000 0.000000
v -0.250000 -0.050000 0.025000
v -0.050000 -0.050000 0.000000
v -0.050000 -0.700000 0.000000
v -0.050000 -0.700000 0.025000
v 0.050000 -0.700000 0.000000
v 0.050000 -0.700000 0.025000
v 0.050000 -0.050000 0.025000
v 0.050000 -0.050000 0.000000
v 0.250000 -0.050000 0.000000
v 0.250000 0.050000 0.000000
v 0.050000 0.050000 0.000000
v 0.050000 0.300000 0.000000
v 0.050000 0.050000 0.025000
vn -0.0000 -0.3240 0.9460
vn -0.0215 0.0214 0.9995
vn -0.4303 -0.0144 0.9026
vn -0.4472 -0.0000 0.8944
vn 0.0144 0.4304 0.9025
vn -0.1121 -0.4330 0.8944
vn -0.0214 -0.0215 0.9995
vn 0.0144 -0.4303 0.9026
vn -0.4304 0.0144 0.9025
vn 0.4330 -0.1121 0.8944
vn 0.0215 -0.0214 0.9995
vn 0.4303 0.0144 0.9026
vn -0.0144 -0.4304 0.9025
vn 0.1121 0.4330 0.8944
vn 0.0214 0.0215 0.9995
vn 0.0215 0.0214 0.9995
vn -0.0000 0.7071 0.7071
vn -0.7071 -0.0000 0.7071
vn -0.0000 -0.7071 0.7071
vn 0.7071 -0.0000 0.7071
vn -0.0000 1.0000 -0.0000
vn -1.0000 -0.0000 -0.0000
vn -0.0000 -1.0000 -0.0000
vn 1.0000 -0.0000 -0.0000
s 1
usemtl cross
f 3//1 1//2 2//3
f 4//4 3//1 2//3
f 4//4 2//3 13//5
f 6//6 4//4 13//5
f 6//6 13//5 5//7
f 6//6 5//7 15//8
f 4//4 6//6 15//8
f 4//4 15//8 8//9
f 7//10 4//4 8//9
f 7//10 8//9 16//11
f 7//10 16//11 17//12
f 4//4 7//10 17//12
f 4//4 17//12 9//13
f 10//14 4//4 9//13
f 10//14 9//13 20//15
f 10//14 20//15 11//16
f 4//4 10//14 11//16
f 3//1 11//16 22//16
f 3//1 4//4 11//16
f 3//1 22//16 1//2
s 0
usemtl rim
f 22//17 21//17 12//17
f 1//17 22//17 12//17
f 1//18 12//18 25//18
f 2//18 1//18 25//18
f 2//17 25//17 26//17
f 13//17 2//17 26//17
f 13//18 26//18 29//18
f 5//18 13//18 29//18
f 5//19 29//19 14//19
f 15//19 5//19 14//19
f 15//18 14//18 32//18
f 8//18 15//18 32//18
f 8//19 32//19 34//19
f 16//19 8//19 34//19
f 16//20 34//20 35//20
f 17//20 16//20 35//20
f 17//19 35//19 18//19
f 9//19 17//19 18//19
f 9//20 18//20 19//20
f 20//20 9//20 19//20
f 20//17 19//17 41//17
f 11//17 20//17 41//17
f 11//20 41//20 21//20
f 22//20 11//20 21//20
f 40//21 23//21 12//21
f 21//21 40//21 12//21
f 23//22 24//22 25//22
f 12//22 23//22 25//22
f 24//21 28//21 26//21
f 25//21 24//21 26//21
f 28//22 27//22 29//22
f 26//22 28//22 29//22
f 27//23 30//23 14//23
f 29//23 27//23 14//23
f 30//22 31//22 32//22
f 14//22 30//22 32//22
f 31//23 33//23 34//23
f 32//23 31//23 34//23
f 33//24 36//24 35//24
f 34//24 33//24 35//24
f 36//23 37//23 18//23
f 35//23 36//23 18//23
f 37//24 38//24 19//24
f 18//24 37//24 19//24
f 38//21 39//21 41//21
f 19//21 38//21 41//21
f 39//24 40//24 21//24
f 41//24 39//24 21//24
